<svg width="146" height="94" viewBox="0 0 146 94" fill="none" xmlns="http://www.w3.org/2000/svg">
<path d="M15.8744 60.35C15.3411 60.35 15.0744 59.9 15.0744 59C15.0411 58.1667 15.0577 56.85 15.1244 55.05C15.1911 53.25 15.2244 51.2333 15.2244 49C15.2244 47.2 15.1744 45.35 15.0744 43.45C15.0077 41.5167 14.8411 39.6667 14.5744 37.9C14.3411 36.1 13.9911 34.5 13.5244 33.1C13.0577 31.7 12.4411 30.5833 11.6744 29.75C10.9411 28.9167 10.0411 28.5 8.97441 28.5C7.84108 28.5 6.84108 28.7833 5.97441 29.35C5.14108 29.8833 4.35775 30.55 3.62441 31.35C2.92441 32.15 2.20775 32.9333 1.47441 33.7C1.27441 33.9333 1.14108 34 1.07441 33.9C0.974414 33.8 0.941081 33.6833 0.974414 33.55C1.27441 32.8833 1.77441 32.1333 2.47441 31.3C3.20775 30.4667 4.02441 29.6833 4.92441 28.95C5.85775 28.1833 6.80775 27.5667 7.77441 27.1C8.77441 26.6 9.67441 26.35 10.4744 26.35C11.7411 26.35 12.8244 26.9333 13.7244 28.1C14.6244 29.2667 15.3411 30.8333 15.8744 32.8C16.4411 34.7667 16.8411 36.9833 17.0744 39.45C17.3411 41.8833 17.4744 44.4 17.4744 47C17.4744 50.9 17.2411 54.5667 16.7744 58C17.3744 55.9667 18.0911 53.7167 18.9244 51.25C19.7577 48.75 20.7244 46.1667 21.8244 43.5C22.9244 40.8 24.1411 38.15 25.4744 35.55C26.8411 32.95 28.3244 30.5333 29.9244 28.3C31.5577 26.0333 33.3244 24.0833 35.2244 22.45C37.1577 20.7833 39.2077 19.5667 41.3744 18.8C42.2411 18.5333 43.0244 18.4 43.7244 18.4C44.8911 18.4 45.9077 18.7167 46.7744 19.35C47.6744 19.95 48.2244 20.8667 48.4244 22.1V22.2C48.4244 22.5 48.3577 22.8 48.2244 23.1C48.1244 23.4 48.0077 23.55 47.8744 23.55C47.6744 23.55 47.5744 23.2 47.5744 22.5C47.5744 21.7 47.3578 21.0167 46.9244 20.45C46.4911 19.85 45.7744 19.55 44.7744 19.55C44.1744 19.55 43.4411 19.7 42.5744 20C40.0411 20.8667 37.5744 22.4833 35.1744 24.85C32.8077 27.2167 30.5577 30.1333 28.4244 33.6C26.2911 37.0667 24.3077 40.9333 22.4744 45.2C20.6411 49.4333 19.0077 53.9 17.5744 58.6C17.4411 59.0667 17.1911 59.4667 16.8244 59.8C16.4911 60.1667 16.1744 60.35 15.8744 60.35Z" fill="black"/>
<path d="M58.9412 68.55C58.0079 68.55 57.2245 68.15 56.5912 67.35C55.9579 66.5833 55.4912 65.6333 55.1912 64.5C54.8912 63.3667 54.7412 62.2833 54.7412 61.25C54.7412 59.25 55.0245 57.0333 55.5912 54.6C56.1579 52.1667 56.8579 49.6833 57.6912 47.15C58.5579 44.6167 59.4412 42.1833 60.3412 39.85C61.2745 37.4833 62.1079 35.35 62.8412 33.45C63.5745 31.55 64.0912 30.0333 64.3912 28.9C64.4579 28.6 64.5079 28.3333 64.5412 28.1C64.5745 27.8333 64.5912 27.6167 64.5912 27.45C64.5912 26.85 64.4079 26.55 64.0412 26.55C63.5079 26.55 62.7079 27.1 61.6412 28.2C60.5745 29.2667 59.3745 30.7333 58.0412 32.6C56.7412 34.4333 55.4412 36.5167 54.1412 38.85C52.8412 41.1833 51.6745 43.6 50.6412 46.1C49.6412 48.5667 48.9412 50.9833 48.5412 53.35C48.4079 54.2167 48.1745 54.8667 47.8412 55.3C47.5412 55.7333 47.2412 55.95 46.9412 55.95C46.6745 55.95 46.4412 55.7833 46.2412 55.45C46.0412 55.1167 45.9412 54.6333 45.9412 54C45.9079 51.3333 45.8245 48.6667 45.6912 46C45.5579 43.3 45.2579 40.7167 44.7912 38.25C44.0912 34.45 43.2912 31.75 42.3912 30.15C41.5245 28.55 40.6245 27.75 39.6912 27.75C38.8245 27.75 37.9745 28.2833 37.1412 29.35C36.3412 30.3833 35.5745 31.7667 34.8412 33.5C34.1079 35.2 33.4579 37.0667 32.8912 39.1C32.3245 41.1333 31.8745 43.15 31.5412 45.15C31.2412 47.15 31.0912 48.9333 31.0912 50.5C31.0912 50.8667 31.0912 51.2333 31.0912 51.6C31.1245 51.9333 31.1579 52.25 31.1912 52.55C31.2245 52.7167 31.2412 52.9 31.2412 53.1C31.2412 53.2667 31.2412 53.4333 31.2412 53.6C31.2412 54.3667 31.1412 55.05 30.9412 55.65C30.7412 56.25 30.5079 56.55 30.2412 56.55C29.9745 56.55 29.7245 56.25 29.4912 55.65C29.2245 55.05 29.0079 54.3 28.8412 53.4C28.6745 52.4667 28.5412 51.6833 28.4412 51.05C28.3745 50.5833 28.2245 49.8833 27.9912 48.95C27.7912 48.0167 27.5412 47 27.2412 45.9C26.9412 44.7667 26.5912 43.6667 26.1912 42.6C25.8245 41.5 25.4245 40.5667 24.9912 39.8C24.5579 39 24.1079 38.4833 23.6412 38.25C23.5745 38.1833 23.5412 38.1167 23.5412 38.05C23.5412 37.8833 23.7079 37.7833 24.0412 37.75C24.4079 37.7167 24.6579 37.7333 24.7912 37.8C25.4912 38 26.1079 38.5 26.6412 39.3C27.2079 40.0667 27.6912 40.9833 28.0912 42.05C28.5245 43.0833 28.8912 44.1167 29.1912 45.15C29.4912 46.15 29.7412 46.9833 29.9412 47.65C30.3079 45.35 30.7412 43.0833 31.2412 40.85C31.7745 38.5833 32.4745 36.3667 33.3412 34.2C34.5745 31.2 35.7912 29.0667 36.9912 27.8C38.1912 26.5 39.3245 25.85 40.3912 25.85C41.5245 25.85 42.5412 26.4333 43.4412 27.6C44.3745 28.7333 45.1579 30.25 45.7912 32.15C46.4579 34.0167 46.9079 36.05 47.1412 38.25C47.2745 39.3833 47.3579 40.6167 47.3912 41.95C47.4245 43.25 47.4412 44.5333 47.4412 45.8V49.7C47.4412 50.2667 47.4412 50.7833 47.4412 51.25C47.4412 51.7167 47.4579 52.1 47.4912 52.4C47.7245 51.6 48.1079 50.4833 48.6412 49.05C49.1745 47.5833 49.8245 45.95 50.5912 44.15C51.3579 42.3167 52.2245 40.4333 53.1912 38.5C54.1579 36.5667 55.1912 34.7167 56.2912 32.95C57.4245 31.15 58.5912 29.5833 59.7912 28.25C61.0245 26.8833 62.2579 25.8833 63.4912 25.25C64.2245 24.8833 64.9079 24.7 65.5412 24.7C66.2745 24.7 66.8912 24.9167 67.3912 25.35C67.8912 25.75 68.1412 26.35 68.1412 27.15C68.1412 28.35 67.8912 29.55 67.3912 30.75C66.8912 31.9167 66.2912 33.0667 65.5912 34.2C64.8912 35.3333 64.2412 36.4333 63.6412 37.5C62.5745 39.4333 61.5079 41.6667 60.4412 44.2C59.3745 46.7333 58.4745 49.35 57.7412 52.05C57.0412 54.75 56.6912 57.35 56.6912 59.85C56.6912 60.65 56.7245 61.4333 56.7912 62.2C56.8912 62.9667 57.0412 63.7 57.2412 64.4C57.5412 65.4667 57.9079 66.2 58.3412 66.6C58.8079 67.0333 59.2745 67.25 59.7412 67.25C60.2412 67.25 60.7079 67.1 61.1412 66.8C61.5745 66.5333 61.9245 66.2333 62.1912 65.9C62.4579 65.6 62.5745 65.4167 62.5412 65.35C62.8412 65.25 62.9579 65.3333 62.8912 65.6C62.8245 65.9 62.6912 66.2 62.4912 66.5C62.2912 66.8333 62.1579 67.0333 62.0912 67.1C60.9245 68.0667 59.8745 68.55 58.9412 68.55Z" fill="#F56416"/>
<path d="M77.6378 62.4545C75.5355 62.4545 73.7221 61.9905 72.1974 61.0625C70.6823 60.125 69.5128 58.8182 68.6889 57.142C67.8745 55.4564 67.4673 53.4962 67.4673 51.2614C67.4673 49.0265 67.8745 47.0568 68.6889 45.3523C69.5128 43.6383 70.6586 42.303 72.1264 41.3466C73.6037 40.3807 75.3272 39.8977 77.2969 39.8977C78.4332 39.8977 79.5554 40.0871 80.6634 40.4659C81.7713 40.8447 82.7798 41.4602 83.6889 42.3125C84.598 43.1553 85.3224 44.2727 85.8622 45.6648C86.402 47.0568 86.6719 48.7708 86.6719 50.8068V52.2273H69.8537V49.3295H83.2628C83.2628 48.0985 83.0166 47 82.5241 46.0341C82.0412 45.0682 81.3499 44.3059 80.4503 43.7472C79.5601 43.1884 78.509 42.9091 77.2969 42.9091C75.9616 42.9091 74.8063 43.2405 73.831 43.9034C72.8651 44.5568 72.1217 45.4091 71.6009 46.4602C71.08 47.5114 70.8196 48.6383 70.8196 49.8409V51.7727C70.8196 53.4205 71.1037 54.8172 71.6719 55.9631C72.2495 57.0994 73.0497 57.9659 74.0724 58.5625C75.0952 59.1496 76.2836 59.4432 77.6378 59.4432C78.5185 59.4432 79.3139 59.3201 80.0241 59.0739C80.7438 58.8182 81.3641 58.4394 81.8849 57.9375C82.4058 57.4261 82.8082 56.7917 83.0923 56.0341L86.331 56.9432C85.9901 58.0417 85.4171 59.0076 84.6122 59.8409C83.8073 60.6648 82.813 61.3087 81.6293 61.7727C80.4455 62.2273 79.1151 62.4545 77.6378 62.4545ZM100.01 62.4545C98.1918 62.4545 96.5866 61.9953 95.1946 61.0767C93.8026 60.1487 92.7135 58.8419 91.9276 57.1562C91.1416 55.4612 90.7486 53.4583 90.7486 51.1477C90.7486 48.8561 91.1416 46.8674 91.9276 45.1818C92.7135 43.4962 93.8073 42.1941 95.2088 41.2756C96.6103 40.357 98.2296 39.8977 100.067 39.8977C101.487 39.8977 102.609 40.1345 103.433 40.608C104.267 41.072 104.901 41.6023 105.337 42.1989C105.782 42.786 106.127 43.2689 106.374 43.6477H106.658V32.9091H110.01V62H106.771V58.6477H106.374C106.127 59.0455 105.777 59.5473 105.322 60.1534C104.868 60.75 104.219 61.285 103.376 61.7585C102.534 62.2225 101.411 62.4545 100.01 62.4545ZM100.464 59.4432C101.809 59.4432 102.946 59.0928 103.874 58.392C104.802 57.6818 105.507 56.7017 105.99 55.4517C106.473 54.1922 106.714 52.7386 106.714 51.0909C106.714 49.4621 106.478 48.0369 106.004 46.8153C105.531 45.5843 104.83 44.6278 103.902 43.946C102.974 43.2547 101.828 42.9091 100.464 42.9091C99.044 42.9091 97.8603 43.2737 96.9134 44.0028C95.9759 44.7225 95.2704 45.7027 94.7969 46.9432C94.3329 48.1742 94.1009 49.5568 94.1009 51.0909C94.1009 52.6439 94.3376 54.0549 94.8111 55.3239C95.294 56.5833 96.0043 57.5871 96.9418 58.3352C97.8887 59.0739 99.063 59.4432 100.464 59.4432ZM116.615 62V40.1818H119.967V62H116.615ZM118.32 36.5455C117.666 36.5455 117.103 36.3229 116.629 35.8778C116.165 35.4328 115.933 34.8977 115.933 34.2727C115.933 33.6477 116.165 33.1127 116.629 32.6676C117.103 32.2225 117.666 32 118.32 32C118.973 32 119.532 32.2225 119.996 32.6676C120.469 33.1127 120.706 33.6477 120.706 34.2727C120.706 34.8977 120.469 35.4328 119.996 35.8778C119.532 36.3229 118.973 36.5455 118.32 36.5455ZM132.528 62.5114C131.145 62.5114 129.89 62.2509 128.763 61.7301C127.637 61.1998 126.742 60.4375 126.079 59.4432C125.416 58.4394 125.085 57.2273 125.085 55.8068C125.085 54.5568 125.331 53.5436 125.823 52.767C126.316 51.9811 126.974 51.3655 127.798 50.9205C128.621 50.4754 129.531 50.1439 130.525 49.9261C131.529 49.6989 132.537 49.5189 133.55 49.3864C134.876 49.2159 135.951 49.0881 136.775 49.0028C137.608 48.9081 138.214 48.7519 138.593 48.5341C138.981 48.3163 139.175 47.9375 139.175 47.3977V47.2841C139.175 45.8826 138.792 44.7936 138.025 44.017C137.267 43.2405 136.117 42.8523 134.573 42.8523C132.973 42.8523 131.718 43.2027 130.809 43.9034C129.9 44.6042 129.261 45.3523 128.891 46.1477L125.71 45.0114C126.278 43.6856 127.035 42.6534 127.982 41.9148C128.939 41.1667 129.98 40.6458 131.107 40.3523C132.244 40.0492 133.361 39.8977 134.46 39.8977C135.16 39.8977 135.965 39.983 136.874 40.1534C137.793 40.3144 138.678 40.6506 139.531 41.1619C140.392 41.6733 141.107 42.4451 141.675 43.4773C142.244 44.5095 142.528 45.892 142.528 47.625V62H139.175V59.0455H139.005C138.778 59.5189 138.399 60.0256 137.869 60.5653C137.338 61.1051 136.633 61.5644 135.752 61.9432C134.871 62.322 133.797 62.5114 132.528 62.5114ZM133.039 59.5C134.365 59.5 135.482 59.2396 136.391 58.7188C137.31 58.1979 138.001 57.5256 138.465 56.7017C138.939 55.8778 139.175 55.0114 139.175 54.1023V51.0341C139.033 51.2045 138.721 51.3608 138.238 51.5028C137.764 51.6354 137.215 51.7538 136.59 51.858C135.975 51.9527 135.373 52.0379 134.786 52.1136C134.209 52.1799 133.74 52.2367 133.38 52.2841C132.509 52.3977 131.694 52.5824 130.937 52.8381C130.189 53.0843 129.583 53.4583 129.119 53.9602C128.664 54.4527 128.437 55.125 128.437 55.9773C128.437 57.142 128.868 58.0227 129.729 58.6193C130.601 59.2064 131.704 59.5 133.039 59.5Z" fill="black"/>
</svg>
